<!-- Generated by IcoMoon.io -->
<svg version="1.1" xmlns="http://www.w3.org/2000/svg" width="96" height="64" viewBox="0 0 32 32">
<title>arrow-right</title>
<path fill="none" stroke-linejoin="miter" stroke-linecap="butt" stroke-miterlimit="4" stroke-width="0.3299" stroke="#000" d="M20.948 16c0 5.739-4.653 10.392-10.392 10.392s-10.392-4.653-10.392-10.392c0-5.739 4.653-10.392 10.392-10.392s10.392 4.653 10.392 10.392z"></path>
<path d="M31.787 16.117c0.064-0.064 0.064-0.169 0-0.233l-1.050-1.050c-0.064-0.064-0.169-0.064-0.233 0s-0.064 0.169 0 0.233l0.933 0.933-0.933 0.933c-0.064 0.064-0.064 0.169 0 0.233s0.169 0.064 0.233 0l1.050-1.050zM9.897 16.165h21.773v-0.33h-21.773v0.33z"></path>
</svg>
